<svg width="292" height="74" viewBox="0 0 292 74" fill="none" xmlns="http://www.w3.org/2000/svg">
<g clip-path="url(#clip0_624_331)">
<path fill-rule="evenodd" clip-rule="evenodd" d="M60 37V45.2733H62.6129H65.2259V41.9867V38.7H71.1334H77.041V36.7733V34.8467H71.1334H65.2259V33.7133V32.58H71.247H77.2682V30.6533V28.7267H68.6341H60V37ZM97.7746 36.995L93.6284 45.2733H96.3056H98.9831L99.7113 43.8L100.44 42.3267H105.421H110.402L111.228 43.8L112.054 45.2733H114.895H117.737L116.426 42.8367C115.705 41.4964 113.718 37.799 112.011 34.62L108.908 28.84L105.414 28.7783L101.921 28.7167L97.7746 36.995ZM136.571 36.9898V45.2733H144.936C151.954 45.2733 153.5 45.2146 154.53 44.9095C157.303 44.0879 158.677 41.1598 157.502 38.5774C157.041 37.5662 155.917 36.5072 155.082 36.298C154.563 36.1681 154.579 36.1357 155.497 35.4394C157.721 33.7537 157.376 30.6327 154.827 29.3811C153.733 28.8439 153.664 28.8395 145.148 28.7731L136.571 28.7063V36.9898ZM177.242 37V45.2733H185.762H194.283V43.2333V41.1933H188.489H182.695V34.96V28.7267H179.968H177.242V37ZM214.05 37V45.2733H222.912H231.773V43.3467V41.42H225.524H219.276V40.06V38.7H225.297H231.318V36.7733V34.8467H225.297H219.276V33.7133V32.58H225.411H231.546V30.6533V28.7267H222.798H214.05V37ZM141.797 33.6V34.8467H146.242C148.872 34.8467 150.867 34.7508 151.127 34.6121C151.631 34.343 151.738 33.0682 151.294 32.6253C151.1 32.4315 149.694 32.3533 146.409 32.3533H141.797V33.6ZM103.905 35.4156C103.126 36.9753 102.489 38.3013 102.489 38.3623C102.489 38.4235 103.818 38.4733 105.443 38.4733C107.067 38.4733 108.396 38.4117 108.396 38.3362C108.396 38.192 105.44 32.58 105.364 32.58C105.34 32.58 104.683 33.8561 103.905 35.4156ZM141.797 40.06V41.6467H146.517C151.961 41.6467 152.248 41.5673 152.248 40.06C152.248 38.5527 151.961 38.4733 146.517 38.4733H141.797V40.06Z" fill="#080B13"/>
</g>
<defs>
<clipPath id="clip0_624_331">
<rect width="172" height="17" fill="white" transform="translate(60 28.5)"/>
</clipPath>
</defs>
</svg>